<svg id="visual" viewBox="0 0 900 600" opacity="0.7" width="900" height="600" xmlns="http://www.w3.org/2000/svg" xmlns:xlink="http://www.w3.org/1999/xlink" version="1.1"><rect x="0" y="0" width="900" height="600" fill="#001220"></rect><defs><linearGradient id="grad1_0" x1="33.3%" y1="0%" x2="100%" y2="100%"><stop offset="20%" stop-color="#001220" stop-opacity="1"></stop><stop offset="80%" stop-color="#001220" stop-opacity="1"></stop></linearGradient></defs><defs><linearGradient id="grad2_0" x1="0%" y1="0%" x2="66.7%" y2="100%"><stop offset="20%" stop-color="#001220" stop-opacity="1"></stop><stop offset="80%" stop-color="#001220" stop-opacity="1"></stop></linearGradient></defs><g transform="translate(900, 0)"><path d="M0 486.7C-60.5 465.2 -120.9 443.6 -171.8 414.8C-222.7 386.1 -264.1 350.1 -313.2 313.2C-362.4 276.4 -419.5 238.6 -449.7 186.3C-479.9 133.9 -483.3 67 -486.7 0L0 0Z" fill="#FBAE3C"></path></g><g transform="translate(0, 600)"><path d="M0 -486.7C57.6 -466.3 115.2 -445.9 176.4 -425.9C237.7 -405.9 302.6 -386.5 344.2 -344.2C385.8 -301.9 404.2 -236.8 424.1 -175.7C443.9 -114.5 465.3 -57.2 486.7 0L0 0Z" fill="#FBAE3C"></path></g></svg>
